<svg xmlns="http://www.w3.org/2000/svg" viewBox="0 0 64 64" width="64" height="64">
  <!-- Rounded green background -->
  <rect width="64" height="64" rx="14" fill="#2D6A4F"/>

  <!-- Leaf / sprout icon -->
  <!-- Main stem -->
  <line x1="32" y1="50" x2="32" y2="22" stroke="#fff" stroke-width="3" stroke-linecap="round"/>

  <!-- Left leaf -->
  <path d="M32 34 C24 28 16 30 18 20 C22 22 30 26 32 34Z" fill="#52B788"/>
  <line x1="32" y1="34" x2="22" y2="25" stroke="#fff" stroke-width="1.2" stroke-linecap="round" opacity="0.6"/>

  <!-- Right leaf -->
  <path d="M32 28 C40 22 48 24 46 14 C42 16 34 20 32 28Z" fill="#74C69D"/>
  <line x1="32" y1="28" x2="42" y2="19" stroke="#fff" stroke-width="1.2" stroke-linecap="round" opacity="0.6"/>

  <!-- Top sprout bud -->
  <ellipse cx="32" cy="19" rx="4.5" ry="6" fill="#52B788"/>
  <ellipse cx="32" cy="17" rx="2.8" ry="3.5" fill="#95D5B2"/>

  <!-- Small roots -->
  <path d="M32 50 C29 52 26 53 25 55" stroke="#74C69D" stroke-width="2" stroke-linecap="round" fill="none" opacity="0.7"/>
  <path d="M32 50 C35 52 38 53 39 55" stroke="#74C69D" stroke-width="2" stroke-linecap="round" fill="none" opacity="0.7"/>
</svg>
